<?xml version="1.0" encoding="UTF-8" standalone="no"?>
<svg width="200px" height="200px" viewBox="0 0 200 200" version="1.1" xmlns="http://www.w3.org/2000/svg" xmlns:xlink="http://www.w3.org/1999/xlink">
    <defs></defs>
    <g stroke="none" stroke-width="1" fill="none" fill-rule="evenodd">
        <g transform="translate(-253.000000, -105.000000)">
            <g transform="translate(108.000000, 73.000000)">
                <g transform="translate(100.000000, 0.000000)">
                    <g transform="translate(45.000000, 27.000000)">
                        <g transform="translate(0.000000, 5.000000)">
                            <rect fill="#009E51" x="0" y="0" width="200" height="200" rx="5"></rect>
                            <g transform="translate(55.000000, 81.000000)" fill="#FFFFFF">
                                <path d="M53.7825423,75.4809991 C53.718708,80.7760213 52.6335326,85.8158618 49.8248419,90.4091335 C46.6969822,95.5127696 42.0371089,98.6387469 36.3558945,100.106042 C29.334168,101.892315 22.2486079,101.828519 15.3545501,99.3404967 C9.35416542,97.2352466 4.82196064,93.279929 1.56643302,87.8573162 C1.05576207,87.0279752 0.672758821,86.1348385 0.162087798,85.3054982 C-0.0294138263,84.9865207 -0.0294138263,84.7951346 0.353589423,84.5399528 C4.94962841,81.7967485 9.54566705,78.9897487 14.141706,76.1827489 C14.5247093,75.9275671 14.6523773,76.0551576 14.8438789,76.374135 C15.673719,77.8414302 16.5673935,79.2449305 17.5249016,80.5846344 C20.2059244,84.284771 23.8444553,85.56068 28.2489926,85.0503164 C30.4193441,84.7951346 32.398194,84.0933841 33.7387054,82.2433165 C34.9515495,80.6484301 35.3983864,78.7983618 35.589888,76.820703 C35.717556,75.4809991 35.8452233,74.0774988 35.8452233,72.7377942 L35.8452233,13.5356179 C35.8452233,12.7700725 36.0367249,12.6424816 36.8027314,12.6424816 C42.2286105,12.706277 47.718324,12.6424816 53.1442031,12.6424816 C53.7825423,12.6424816 53.9102096,12.7700725 53.9102096,13.408027 C53.7825423,23.9342761 53.846376,34.3967294 53.7825423,44.8591833 C53.7825423,55.0664555 53.846376,65.2737269 53.7825423,75.4809991 Z"></path>
                                <path d="M69.1026716,32.738048 C69.038838,37.2037292 68.6558347,35.736434 69.3580076,40.3297065 C70.0601797,44.7953877 71.7836943,48.8145009 74.7838867,52.2594556 C77.4010758,55.2578417 80.6566027,57.4906823 84.103632,59.4045454 C88.1890004,61.7011817 92.5935378,63.2960681 96.8704072,65.2737269 C99.5514299,66.4858403 102.168618,67.6341588 104.594306,69.3566358 C109.828683,73.0567716 109.637182,81.0949981 102.934625,84.0295892 C100.764273,84.9227251 98.5300882,85.3054982 96.2320687,85.3692931 C91.8913649,85.4330887 87.8698308,84.3485659 84.4228016,81.6691573 C82.0609484,79.819089 80.2097658,77.5224535 78.6139192,74.9706355 C78.4224176,74.651658 78.3585839,74.3964762 77.8479127,74.651658 C73.2518737,77.3310666 68.6558347,80.0104759 64.0597957,82.6260889 C63.7406261,82.8174758 63.6129588,82.9450663 63.8044605,83.3278394 C68.0813298,91.2384746 74.5285514,96.5334968 83.0184566,99.276701 C87.0399907,100.616406 91.1891921,101.190565 95.0830589,101.25436 C96.6789055,101.318155 97.8917489,101.25436 99.104593,101.190565 C103.50913,100.935383 107.786,100.106042 111.871368,98.3197695 C118.063253,95.5765652 122.659292,91.2384746 124.893478,84.6675433 C126.425491,80.2656577 126.170155,75.7999758 125.850986,71.1429084 C124.893478,56.7889325 105.48798,49.3248645 102.296286,47.8575693 C86.2101498,40.7124788 95.5937294,31.2707528 104.466638,31.7173208 C104.466638,31.7173208 109.509514,39.3089793 116.339739,40.0745247 C116.339739,40.0745247 117.105745,48.1765468 125.340315,43.7108656 C127.510666,42.4987515 128.340507,37.5227066 126.106321,34.3967294 L124.382807,31.844912 C124.382807,31.844912 119.786768,17.6185266 115.7014,13.4718224 C115.7014,13.4718224 114.297055,6.32673215 115.7014,3.00936878 C115.7014,3.00936878 113.148045,4.41286863 112.382039,5.88016396 C112.382039,5.88016396 112.701208,1.60586893 113.467214,0.840323514 C113.467214,0.840323514 105.679482,5.56118674 105.232644,8.30439103 C105.232644,8.30439103 87.2953259,2.88177787 74.4647171,15.258095 C74.4647171,15.258095 78.4862512,14.7477314 80.2097658,15.3856859 C80.2097658,15.3856859 68.0813298,20.4255264 64.8896359,34.7157068 L69.1026716,32.738048 L69.1026716,32.738048 Z"></path>
                            </g>
                        </g>
                    </g>
                </g>
            </g>
        </g>
    </g>
</svg>