<?xml version="1.0" encoding="UTF-8" standalone="no"?>
<svg xmlns="http://www.w3.org/2000/svg" height="300px" width="300px" version="1.1" xmlns:xlink="http://www.w3.org/1999/xlink" viewBox="0 0 300 300">
    <title>TomskJS</title>
    <desc>Логотип Томского фронтенд сообщества</desc>
    <rect height="300" width="300" y="0" x="0" fill="#009741"/>
    <path fill="#fff" d="m163.5 125.56c0 14.23 0.09 28.47 0 42.7-0.09 7.38-1.6 14.41-5.52 20.82-4.36 7.12-10.86 11.47-18.78 13.52-9.79 2.49-19.67 2.4-29.29-1.07-8.37-2.93-14.686-8.45-19.226-16.01-0.712-1.16-1.246-2.4-1.958-3.56-0.267-0.44-0.267-0.71 0.267-1.07 6.409-3.82 12.817-7.74 19.227-11.65 0.54-0.36 0.71-0.18 0.98 0.27 1.16 2.04 2.4 4 3.74 5.87 3.74 5.16 8.81 6.94 14.95 6.23 3.03-0.36 5.79-1.34 7.66-3.92 1.69-2.22 2.31-4.8 2.58-7.56 0.18-1.87 0.36-3.83 0.36-5.69v-82.564c0-1.068 0.26-1.246 1.33-1.246 7.57 0.089 15.22 0 22.79 0 0.89 0 1.07 0.178 1.07 1.068-0.18 14.679-0.09 29.272-0.18 43.862z"/>
    <path fill="#fff" d="m184.87 108.65c-0.09 6.23-0.63 4.19 0.35 10.59 0.98 6.23 3.38 11.83 7.57 16.64 3.65 4.18 8.19 7.29 13 9.96 5.69 3.2 11.83 5.43 17.8 8.19 3.74 1.69 7.39 3.29 10.77 5.69 7.3 5.16 7.03 16.37-2.31 20.46-3.03 1.25-6.15 1.78-9.35 1.87-6.05 0.09-11.66-1.42-16.47-5.16-3.29-2.58-5.87-5.78-8.1-9.34-0.27-0.45-0.36-0.8-1.07-0.45-6.41 3.74-12.82 7.48-19.23 11.12-0.44 0.27-0.62 0.45-0.35 0.98 5.96 11.03 14.95 18.42 26.79 22.24 5.61 1.87 11.4 2.67 16.83 2.76 2.22 0.09 3.91 0 5.6-0.09 6.15-0.35 12.11-1.51 17.81-4 8.63-3.83 15.04-9.88 18.16-19.04 2.13-6.14 1.78-12.36 1.33-18.86-1.33-20.02-28.39-30.42-32.84-32.47-22.44-9.97-9.35-23.13 3.02-22.51 0 0 7.03 10.59 16.56 11.66 0 0 1.07 11.29 12.55 5.07 3.03-1.69 4.18-8.63 1.07-12.99l-2.4-3.56s-6.41-19.84-12.11-25.623c0 0-1.96-9.964 0-14.59 0 0-3.56 1.957-4.63 4.003 0 0 0.45-5.961 1.51-7.028 0 0-10.86 6.583-11.48 10.409 0 0-25.01-7.562-42.91 9.697 0 0 5.61-0.712 8.02 0.178 0 0-16.92 7.028-21.37 26.954l5.88-2.76z"/>
    <path fill="#fff" d="m98.451 275.44h9.799v-38.99h13.58v-8.61h-36.959v8.61h13.58v38.99zm35.279 0.63c9.24 0 16.38-6.44 16.38-15.47 0-9.1-7.14-15.61-16.38-15.61s-16.45 6.51-16.45 15.61c0 9.03 7.21 15.47 16.45 15.47zm0-7.98c-4.2 0-6.79-3.08-6.79-7.49 0-4.48 2.59-7.49 6.79-7.49s6.72 3.01 6.72 7.49c0 4.41-2.52 7.49-6.72 7.49zm22.75 7.35h9.45v-15.96c0-4.06 1.68-5.88 5.32-5.88 3.57 0 4.62 1.89 4.62 5.39v16.45h9.38v-15.96c0-4.06 1.61-5.88 5.25-5.88 3.57 0 4.69 1.89 4.69 5.39v16.45h9.38v-17.29c0-8.19-4.34-13.16-11.83-13.16-4.41 0-7.7 2.03-10.15 5.11-1.82-3.5-4.55-5.11-8.4-5.11-3.57 0-6.37 1.61-8.47 5.25l0.21-4.62h-9.45v29.82zm66.71 0.63c9.38 0 12.25-4.48 12.25-9.94 0-6.3-5.46-8.33-9.8-9.31-4.06-0.91-5.95-1.12-5.95-2.8 0-1.19 1.05-1.75 3.22-1.75 2.24 0 4.34 1.05 5.74 2.24l5.04-5.39c-2.45-2.52-5.95-4.13-10.85-4.13-6.37 0-11.55 2.73-11.55 9.45 0 6.23 4.55 8.47 8.61 9.52 4.83 1.26 6.72 1.26 6.72 2.87 0 1.26-0.98 1.82-4.06 1.82-2.8 0-5.39-1.19-7.42-3.15l-5.53 4.9c2.59 3.08 6.65 5.67 13.58 5.67zm27.51-9.24l2.52-2.66 7.42 11.27h10.99l-11.69-17.64 10.57-12.18h-10.5l-9.8 11.48c0.28-1.89 0.49-4.2 0.49-6.44v-25.76h-9.45v50.54h9.45v-8.61z"/>
</svg>
