<?xml version="1.0" encoding="UTF-8" standalone="no"?>
<svg width="300px" height="300px" viewBox="0 0 300 300" version="1.1" xmlns="http://www.w3.org/2000/svg" xmlns:xlink="http://www.w3.org/1999/xlink" xmlns:sketch="http://www.bohemiancoding.com/sketch/ns">
    <!-- Generator: Sketch 3.3.3 (12072) - http://www.bohemiancoding.com/sketch -->
    <title>logo</title>
    <desc>Created with Sketch.</desc>
    <defs></defs>
    <g id="Page-1" stroke="none" stroke-width="1" fill="none" fill-rule="evenodd" sketch:type="MSPage">
        <g id="Desktop" sketch:type="MSArtboardGroup" transform="translate(-362.000000, -212.000000)">
            <g id="logo" sketch:type="MSLayerGroup" transform="translate(362.000000, 212.000000)">
                <rect id="Rectangle-path-Copy" fill="#009741" sketch:type="MSShapeGroup" x="0" y="0" width="300" height="300"></rect>
                <path d="M163.501436,125.557533 C163.501436,139.791893 163.590454,154.026252 163.501436,168.260612 C163.412417,175.644686 161.899106,182.672901 157.982299,189.078362 C153.620401,196.195542 147.122062,200.554815 139.199431,202.601004 C129.407414,205.092017 119.526379,205.003052 109.9124,201.533427 C101.544676,198.59759 95.2243748,193.081776 90.6844398,185.519773 C89.9722932,184.363231 89.4381832,183.117724 88.7260365,181.961183 C88.4589815,181.516359 88.4589815,181.249465 88.9930915,180.893606 C95.4024115,177.068122 101.811731,173.153673 108.221051,169.239224 C108.755161,168.883365 108.933198,169.061294 109.200253,169.506118 C110.357491,171.552307 111.603748,173.509532 112.939023,175.377791 C116.677793,180.537747 121.751838,182.317042 127.894103,181.605324 C130.920726,181.249465 133.680294,180.270852 135.549679,177.690875 C137.241028,175.466756 137.864156,172.886778 138.131211,170.128871 C138.309248,168.260612 138.487284,166.303387 138.487284,164.435127 L138.487284,81.8758421 C138.487284,80.8082651 138.754339,80.6303356 139.822559,80.6303356 C147.389117,80.7193004 155.044694,80.6303356 162.611252,80.6303356 C163.501436,80.6303356 163.679472,80.8082651 163.679472,81.6979126 C163.501436,96.3770959 163.590454,110.967314 163.501436,125.557533 L163.501436,125.557533 L163.501436,125.557533 Z" id="Shape" fill="#FFFFFF" sketch:type="MSShapeGroup"></path>
                <path d="M184.865835,108.654231 C184.776817,114.881763 184.242707,112.835574 185.221909,119.241036 C186.20111,125.468568 188.604605,131.073347 192.788467,135.877444 C196.438219,140.058787 200.978153,143.172553 205.785143,145.841495 C211.482317,149.044226 217.624582,151.268345 223.58881,154.026252 C227.32758,155.716582 230.977331,157.317948 234.360028,159.719996 C241.659531,164.879951 241.392476,176.089509 232.045551,180.181888 C229.018928,181.427394 225.903287,181.961183 222.698627,182.050147 C216.64538,182.139112 211.037225,180.626711 206.230235,176.890192 C202.936557,174.310214 200.355025,171.107484 198.129567,167.548894 C197.862512,167.10407 197.773494,166.748211 197.061347,167.10407 C190.652027,170.840589 184.242707,174.577109 177.833387,178.224663 C177.388295,178.491558 177.210259,178.669487 177.477314,179.203276 C183.441542,190.234904 192.432394,197.618978 204.271832,201.444462 C209.879987,203.312722 215.666178,204.113405 221.096297,204.202369 C223.321755,204.291334 225.013103,204.202369 226.704452,204.113405 C232.846716,203.757546 238.810945,202.601004 244.508118,200.109991 C253.142896,196.284507 259.552216,190.234904 262.667858,181.071535 C264.804298,174.932968 264.448224,168.705435 264.003133,162.211009 C262.667858,142.193941 235.606285,131.785065 231.155368,129.738876 C208.722748,119.774824 221.808443,106.608042 234.181991,107.230795 C234.181991,107.230795 241.21444,117.8176 250.739401,118.885177 C250.739401,118.885177 251.807621,130.1837 263.290986,123.956168 C266.317609,122.265837 267.474848,115.326587 264.359206,110.967314 L261.955711,107.408725 C261.955711,107.408725 255.546391,87.5695859 249.849218,81.7868773 C249.849218,81.7868773 247.890815,71.8228257 249.849218,67.1966588 C249.849218,67.1966588 246.288485,69.1538832 245.220265,71.2000724 C245.220265,71.2000724 245.665356,65.2394344 246.733576,64.1718574 C246.733576,64.1718574 235.87334,70.7552487 235.250211,74.5807328 C235.250211,74.5807328 210.23606,67.0187293 192.343375,84.2778903 C192.343375,84.2778903 197.95153,83.5661723 200.355025,84.4558198 C200.355025,84.4558198 183.441542,91.4840348 178.990625,111.412138 L184.865835,108.654231 L184.865835,108.654231 Z" id="Shape" fill="#FFFFFF" sketch:type="MSShapeGroup"></path>
                <text id="Tomsk-" sketch:type="MSTextLayer" font-family="Neutra Text TF" font-size="70" font-weight="bold" sketch:alignment="middle" fill="#FFFFFF">
                    <tspan x="82.6314806" y="275.23999">Tomsk </tspan>
                </text>
            </g>
        </g>
    </g>
</svg>