<?xml version="1.0" encoding="UTF-8" standalone="no"?>
<svg width="62px" height="50px" viewBox="0 0 62 50" version="1.1" xmlns="http://www.w3.org/2000/svg" xmlns:xlink="http://www.w3.org/1999/xlink" xmlns:sketch="http://www.bohemiancoding.com/sketch/ns">
    <!-- Generator: Sketch 3.3.3 (12072) - http://www.bohemiancoding.com/sketch -->
    <title>Shape</title>
    <desc>Created with Sketch.</desc>
    <defs></defs>
    <g id="Page-1" stroke="none" stroke-width="1" fill="none" fill-rule="evenodd" sketch:type="MSPage">
        <g id="Desktop" sketch:type="MSArtboardGroup" transform="translate(-532.000000, -695.000000)" fill="#2F2F2F">
            <path d="M593.458333,700.924479 C591.192708,701.927083 588.770833,702.604167 586.21875,702.916667 C588.822917,701.354167 590.828125,698.880208 591.765625,695.9375 C589.330729,697.382812 586.635417,698.4375 583.757813,698.997396 C581.453125,696.536458 578.171875,695 574.552083,695 C567.585938,695 561.947917,700.651042 561.947917,707.617188 C561.947917,708.606771 562.052083,709.570312 562.273438,710.494792 C551.791667,709.973958 542.494792,704.947917 536.283854,697.304688 C535.203125,699.166667 534.578125,701.341146 534.578125,703.645833 C534.578125,708.020833 536.817708,711.888021 540.203125,714.153646 C538.119792,714.101562 536.166667,713.528646 534.473958,712.578125 L534.473958,712.734375 C534.473958,718.854167 538.822917,723.945312 544.591146,725.104167 C543.536458,725.390625 542.416667,725.546875 541.270833,725.546875 C540.463542,725.546875 539.669271,725.46875 538.901042,725.3125 C540.502604,730.325521 545.164063,733.971354 550.684896,734.075521 C546.375,737.460938 540.932292,739.479167 535.020833,739.479167 C534.005208,739.479167 533.002604,739.414062 532.013021,739.296875 C537.572917,742.916667 544.200521,745 551.309896,745 C574.526042,745 587.208333,725.768229 587.208333,709.088542 C587.208333,708.541667 587.195313,707.994792 587.169271,707.460938 C589.630208,705.677083 591.765625,703.463542 593.458333,700.924479 L593.458333,700.924479 Z" id="Shape" sketch:type="MSShapeGroup"></path>
        </g>
    </g>
</svg>