<?xml version="1.0" encoding="UTF-8" standalone="no"?>
<svg width="88px" height="50px" viewBox="0 0 88 50" version="1.1" xmlns="http://www.w3.org/2000/svg" xmlns:xlink="http://www.w3.org/1999/xlink" xmlns:sketch="http://www.bohemiancoding.com/sketch/ns">
    <!-- Generator: Sketch 3.3.3 (12072) - http://www.bohemiancoding.com/sketch -->
    <title>Shape</title>
    <desc>Created with Sketch.</desc>
    <defs></defs>
    <g id="Page-1" stroke="none" stroke-width="1" fill="none" fill-rule="evenodd" sketch:type="MSPage">
        <g id="Desktop" sketch:type="MSArtboardGroup" transform="translate(-404.000000, -695.000000)" fill="#2F2F2F">
            <path d="M491.434873,740.111146 C491.32914,739.88328 491.230573,739.694268 491.139013,739.542834 C489.624045,736.814331 486.728981,733.465287 482.455573,729.494745 L482.365287,729.403822 L482.320064,729.359236 L482.274363,729.313535 L482.228503,729.313535 C480.289013,727.46465 479.060828,726.221497 478.546497,725.585032 C477.605414,724.372611 477.394586,723.145382 477.908917,721.901911 C478.272293,720.96242 479.637261,718.978344 482.000637,715.946975 C483.24379,714.340446 484.228344,713.052866 484.955414,712.082803 C490.199204,705.111465 492.472611,700.656688 491.775159,698.71672 L491.504299,698.263376 C491.322293,697.990446 490.852548,697.740764 490.095701,697.513057 C489.337102,697.285828 488.367516,697.248248 487.185191,697.399682 L474.092197,697.490127 C473.880096,697.414968 473.577229,697.421975 473.182643,697.513057 C472.788535,697.60414 472.591401,697.649841 472.591401,697.649841 L472.363535,697.763694 L472.182643,697.900478 C472.031051,697.990924 471.864331,698.15 471.682325,698.377389 C471.501274,698.603981 471.349841,698.869904 471.228822,699.17293 C469.803344,702.840287 468.182643,706.25 466.363694,709.401911 C465.242197,711.281369 464.212261,712.910191 463.271656,714.289331 C462.332325,715.667994 461.544268,716.683758 460.90828,717.334873 C460.271338,717.986624 459.696497,718.508758 459.180255,718.903185 C458.664809,719.297771 458.271338,719.46449 457.998885,719.403503 C457.725796,719.342516 457.468631,719.282006 457.225159,719.221497 C456.801115,718.948567 456.460032,718.577389 456.202866,718.107643 C455.944586,717.637898 455.770701,717.046656 455.679777,716.334395 C455.589331,715.621656 455.535828,715.008599 455.520541,714.493153 C455.506369,713.978344 455.512898,713.250159 455.543631,712.310669 C455.575159,711.370701 455.589331,710.734713 455.589331,710.401274 C455.589331,709.249363 455.611783,707.999204 455.656847,706.650478 C455.702707,705.301752 455.739809,704.233121 455.77086,703.44586 C455.801752,702.657803 455.816083,701.824045 455.816083,700.945064 C455.816083,700.066083 455.76258,699.376752 455.656847,698.876433 C455.552389,698.376752 455.392038,697.89172 455.180732,697.421497 C454.968153,696.951752 454.657006,696.588376 454.248726,696.330414 C453.83965,696.072771 453.331051,695.868312 452.725796,695.716401 C451.119268,695.352866 449.073567,695.15621 446.587739,695.125637 C440.950637,695.065127 437.328503,695.42914 435.722134,696.217197 C435.085669,696.550159 434.509713,697.005096 433.994745,697.580573 C433.449045,698.247611 433.37293,698.611624 433.766879,698.671497 C435.585669,698.943949 436.873248,699.595701 437.631051,700.626115 L437.90414,701.172134 C438.116561,701.566083 438.328662,702.263535 438.540924,703.263535 C438.752866,704.263535 438.88965,705.369745 438.949841,706.581529 C439.101115,708.794427 439.101115,710.688694 438.949841,712.26449 C438.798089,713.840924 438.654777,715.068153 438.517994,715.947134 C438.38121,716.826115 438.176752,717.538376 437.90414,718.083758 C437.631051,718.629299 437.449363,718.962739 437.35828,719.083758 C437.267357,719.204777 437.191561,719.281051 437.131369,719.310987 C436.73742,719.461943 436.327707,719.538854 435.903662,719.538854 C435.478981,719.538854 434.964013,719.326433 434.357962,718.901911 C433.75207,718.477389 433.123248,717.894268 432.471497,717.151592 C431.819745,716.408758 431.084713,715.370701 430.266083,714.037261 C429.448089,712.703822 428.599363,711.127866 427.720382,709.309395 L426.993153,707.990605 C426.538535,707.142197 425.917516,705.906847 425.129459,704.285669 C424.340924,702.663854 423.643949,701.095064 423.038057,699.579618 C422.79586,698.943153 422.432006,698.458599 421.947134,698.125159 L421.719586,697.988376 C421.568312,697.867357 421.325478,697.738854 420.992357,697.601911 C420.658758,697.465127 420.310669,697.367038 419.946656,697.306688 L407.489809,697.397134 C406.216879,697.397134 405.353185,697.68551 404.898408,698.261465 L404.716401,698.533917 C404.625478,698.685669 404.579618,698.928025 404.579618,699.261624 C404.579618,699.595064 404.670541,700.004299 404.852548,700.488854 C406.671019,704.762739 408.648567,708.884554 410.785191,712.854936 C412.921815,716.825318 414.778503,720.023567 416.35414,722.446815 C417.930096,724.871815 419.536465,727.16051 421.173248,729.311783 C422.810032,731.463854 423.893471,732.842994 424.423567,733.448885 C424.954299,734.055892 425.371178,734.509713 425.674204,734.812739 L426.810987,735.903662 C427.538376,736.63121 428.606529,737.502548 430.015924,738.517675 C431.425637,739.533439 432.986306,740.533439 434.698726,741.519268 C436.411465,742.503503 438.403981,743.306688 440.677389,743.927866 C442.950478,744.549682 445.162898,744.799204 447.314968,744.678822 L452.543312,744.678822 C453.603662,744.587261 454.407006,744.253822 454.953025,743.678344 L455.133917,743.450478 C455.255573,743.269586 455.369427,742.988535 455.474522,742.61035 C455.580892,742.231529 455.633758,741.814172 455.633758,741.360191 C455.602707,740.057166 455.701911,738.882803 455.928662,737.837261 C456.155255,736.792038 456.413535,736.003981 456.702389,735.473248 C456.991083,734.942994 457.316879,734.495541 457.679459,734.132803 C458.042834,733.769268 458.301752,733.549045 458.453662,733.473248 C458.604618,733.396975 458.725159,733.345223 458.816083,733.314172 C459.543471,733.071815 460.399522,733.306529 461.38551,734.019427 C462.370701,734.731688 463.294745,735.611146 464.159076,736.656369 C465.02293,737.702548 466.060828,738.876274 467.27293,740.179299 C468.485828,741.482803 469.546338,742.451752 470.455255,743.089172 L471.364172,743.634713 C471.971178,743.998726 472.759236,744.332166 473.729299,744.635191 C474.697611,744.938057 475.546019,745.013854 476.274522,744.86242 L487.91258,744.680892 C489.063694,744.680892 489.959395,744.490287 490.594745,744.112102 C491.231369,743.73328 491.609554,743.315924 491.731529,742.861943 C491.853185,742.407484 491.859713,741.891879 491.754618,741.315446 C491.646815,740.740446 491.540605,740.338376 491.434873,740.111146 L491.434873,740.111146 Z" id="Shape" sketch:type="MSShapeGroup"></path>
        </g>
    </g>
</svg>